PathFileType	4	(X/Y/Z)	C:\Data\4407\4407cd02.trc
DataRate	CameraRate	NumFrames	NumMarkers	Units	OrigDataRate	OrigDataStartFrame	OrigNumFrames
200.00	200.00	      5	29	mm	200.00	751	      2000
Frame#	Time	Offset			RShoulder			RUpperArm			RElbow			RForearm			RWrist			LShoulder			LUpperArm			LElbow			LForearm			LWrist			LPSIS			RPSIS			RASIS			RThigh			RKnee			RShank			RAnkle			RHeel			RLat5			RToe			LASIS			LThigh			LKnee			LShank			LAnkle			LHeel			LLat5			LToe			
		X1	Y1	Z1	X2	Y2	Z2	X3	Y3	Z3	X4	Y4	Z4	X5	Y5	Z5	X6	Y6	Z6	X7	Y7	Z7	X8	Y8	Z8	X9	Y9	Z9	X10	Y10	Z10	X11	Y11	Z11	X12	Y12	Z12	X13	Y13	Z13	X14	Y14	Z14	X15	Y15	Z15	X16	Y16	Z16	X17	Y17	Z17	X18	Y18	Z18	X19	Y19	Z19	X20	Y20	Z20	X21	Y21	Z21	X22	Y22	Z22	X23	Y23	Z23	X24	Y24	Z24	X25	Y25	Z25	X26	Y26	Z26	X27	Y27	Z27	X28	Y28	Z28	X29	Y29	Z29	

751	3.750	347.56784	-235.14610	1392.90894	460.14932	-97.98922	1501.34753	541.06311	-187.53139	1336.31885	631.63702	-149.56677	1210.15076	674.42920	-123.43022	1052.75037	747.31891	-13.92868	1012.57611	107.77441	-113.01181	1505.83826	54.47622	-206.14923	1297.26050	-35.13161	-184.01459	1209.54114	-89.37408	-143.87730	1065.22180	-173.50372	-27.48795	1009.08386	248.91888	-250.25168	1017.11023	299.85092	-250.75531	1014.03748	401.95401	-42.13767	1012.43359	367.36508	37.06064	703.97235	449.42221	-17.64327	503.51376	407.36014	-37.79221	418.06158	382.60760	-350.99374	256.44901	324.45367	-399.76999	285.62186	432.49298	-322.00311	116.45253	328.62604	-300.77347	100.28391	152.67117	-34.30683	1004.71655	196.73836	12.82036	682.01428	154.30035	-37.94005	517.67163	204.07474	-16.59674	445.41809	198.43651	-97.86914	107.40767	244.95049	-158.13559	79.09814	177.15401	56.64730	58.94061	288.04935	52.13456	49.68273	
752	3.755	347.47839	-235.37450	1393.40662	460.23584	-98.34280	1501.90466	541.18146	-187.46945	1336.64514	631.59973	-149.09438	1210.37183	674.37421	-123.25363	1053.02551	747.32806	-13.81433	1012.59674	107.61449	-113.20768	1506.32300	54.02448	-206.14780	1297.77979	-35.45668	-183.56613	1209.99329	-89.56542	-143.63029	1065.65723	-173.61493	-27.38477	1009.11694	249.13013	-250.91843	1017.94757	299.93832	-251.31741	1014.64191	401.34695	-42.60480	1013.18005	367.20642	39.45458	706.26471	448.83524	-12.43806	505.41425	407.34897	-32.42852	419.44751	383.03586	-342.40753	253.70782	325.45639	-392.64639	281.64359	433.30768	-309.96509	115.17429	328.21362	-290.59171	98.26025	152.16046	-35.30937	1005.12433	196.41681	9.68494	681.48523	153.78090	-42.85784	517.64386	203.82053	-22.14698	445.12051	198.68831	-104.01492	107.38671	245.36514	-164.69565	79.10709	177.30711	49.89160	58.77682	287.95105	45.66068	49.52050	
753	3.760	347.40253	-235.87189	1394.03113	460.33972	-98.71049	1502.25745	541.20605	-187.41299	1336.86890	631.56250	-148.73210	1210.51831	674.34650	-123.01938	1053.34814	747.32190	-13.61955	1012.64728	107.56691	-113.44888	1506.76819	53.71307	-206.12466	1298.28040	-35.69836	-183.06526	1210.35193	-89.76788	-143.33783	1066.05566	-173.67293	-27.22562	1009.16211	249.46803	-251.59583	1018.74274	300.03409	-251.89861	1015.29022	400.93646	-42.96120	1014.01746	367.05133	42.20955	708.88159	448.27036	-7.28862	507.26337	407.21448	-25.97570	422.73123	383.43106	-333.83856	251.09860	326.34131	-385.58606	277.30829	434.10474	-297.31107	113.27254	330.26666	-276.37537	97.51012	151.68790	-36.27125	1005.47662	196.11905	6.49443	681.14880	153.47276	-48.12086	517.41907	203.57028	-27.40953	445.14594	198.70732	-110.74587	107.66693	244.97954	-171.35802	79.58215	177.18410	43.31234	58.54709	287.98544	38.87984	49.41147	
754	3.765	347.37091	-236.24942	1394.45044	460.20569	-99.26782	1502.63989	541.34351	-187.34348	1337.04163	631.47864	-148.22510	1210.73865	674.34424	-122.78115	1053.50574	747.28271	-13.42178	1012.66528	107.52758	-113.67647	1507.15039	53.35113	-205.98291	1298.57617	-35.91485	-182.46307	1210.78101	-89.83279	-143.12471	1066.39319	-173.71326	-27.00249	1009.20679	249.70120	-252.27336	1019.41522	300.70755	-252.32928	1015.95618	400.17902	-43.22918	1014.79498	366.89059	44.71010	711.24542	447.92935	-2.44541	509.19852	406.76343	-19.65112	424.38416	383.75122	-325.34146	248.13499	326.71552	-378.15030	272.72330	435.01804	-284.34329	111.92857	330.92075	-263.79239	95.82014	151.08939	-37.48043	1005.73376	195.37630	3.32801	680.75787	153.10199	-53.17120	517.29407	203.32043	-32.76256	444.95163	198.59084	-117.23814	107.72200	244.85599	-177.87578	79.86205	177.23965	36.82540	58.49645	287.84644	32.15610	49.30045	
755	3.770	347.31384	-236.57133	1394.91272	460.25793	-99.64222	1502.90308	541.39252	-187.26685	1337.13538	631.37354	-147.85568	1210.95532	674.36243	-122.47005	1053.66064	747.29364	-13.27087	1012.64484	107.54123	-114.01241	1507.50500	52.93241	-205.96506	1298.86609	-36.16504	-181.93768	1211.10376	-90.10309	-142.87425	1066.81836	-173.78856	-26.90639	1009.19916	249.97144	-252.93561	1020.13861	301.07532	-252.80608	1016.47290	399.56870	-43.57628	1015.45587	366.67496	47.42859	713.67908	447.30795	2.35527	511.27942	406.33478	-13.44827	426.17697	384.14975	-316.27158	245.10217	327.74939	-370.60098	267.74786	435.76291	-270.88663	110.08413	331.32504	-251.30768	94.58730	150.32288	-38.62613	1006.10590	194.01009	-1.41429	679.18671	152.91475	-58.14590	517.15790	203.26964	-38.40187	444.65561	198.82654	-123.92509	108.25777	245.08141	-184.56619	80.10960	177.11905	30.05167	58.39572	287.83679	25.40085	49.15347	
